<svg width="262" height="262" viewBox="0 0 262 262" fill="none" xmlns="http://www.w3.org/2000/svg">
<rect width="262" height="262" rx="52" fill="white"/>
<g clip-path="url(#clip0_60_17)">
<path d="M216 57.1704L187.54 71.6704L50.11 141.67C49.6453 138.126 49.4115 134.555 49.41 130.98C49.4288 116.717 53.1735 102.707 60.2732 90.336C67.3729 77.9655 77.5813 67.6644 89.8871 60.453C102.193 53.2417 116.169 49.3704 130.432 49.2226C144.694 49.0748 158.747 52.6556 171.2 59.6104L187.49 51.3104L189.92 50.0704C174.997 39.2393 157.371 32.745 138.988 31.3053C120.605 29.8656 102.182 33.5366 85.7551 41.9125C69.3282 50.2885 55.537 63.0432 45.9057 78.7669C36.2744 94.4907 31.1781 112.571 31.18 131.01C31.18 133.557 31.2767 136.094 31.47 138.62C31.7408 142.198 30.9472 145.777 29.1892 148.905C27.4312 152.033 24.7872 154.571 21.59 156.2L13 160.58V181.01L38.29 168.12L46.48 163.94L54.55 159.83L199.43 86.0104L215.71 77.7204L249.36 60.5704V40.1504L216 57.1704ZM249.36 81.0104L62.78 176.01L46.5 184.32L13 201.39V221.8L46.27 204.85L74.73 190.35L212.3 120.25C212.765 123.818 212.999 127.412 213 131.01C212.991 145.29 209.248 159.319 202.141 171.704C195.034 184.09 184.812 194.402 172.488 201.615C160.165 208.829 146.169 212.694 131.89 212.826C117.611 212.959 103.545 209.354 91.09 202.37L90.09 202.9L72.43 211.9C87.3493 222.732 104.972 229.228 123.352 230.671C141.732 232.114 160.153 228.448 176.58 220.078C193.007 211.708 206.8 198.959 216.436 183.241C226.071 167.523 231.174 149.447 231.18 131.01C231.18 128.44 231.08 125.87 230.89 123.33C230.62 119.754 231.412 116.177 233.168 113.049C234.924 109.921 237.566 107.382 240.76 105.75L249.36 101.37V81.0104Z" fill="black"/>
</g>
<defs>
<clipPath id="clip0_60_17">
<rect width="236" height="236" fill="white" transform="translate(13 13)"/>
</clipPath>
</defs>
</svg>
